<svg viewBox="0 0 6.3499998 6.3499998" width="512" height="512" xmlns="http://www.w3.org/2000/svg">
	<title>0KepOnline's Adventure Cast Thumbnails</title>
	<defs>
		<radialGradient id="bg" cx="94" cy="67.1" r="9.2" gradientTransform="matrix(5.62, 0, 0, 3.69, -460.05, -182.82" gradientUnits="userSpaceOnUse">
			<stop offset="0%" stop-color="white" stop-opacity="0.39" />
			<stop offset="100%" stop-color="white" stop-opacity="0.5" />
		</radialGradient>
		<linearGradient id="yellow" y1="0%" y2="100%">
			<stop offset="0%" stop-color="#e6a113" />
			<stop offset="30%" stop-color="#e7aa00" />
			<stop offset="30%" stop-color="#e7aa00" />
			<stop offset="100%" stop-color="#e27f00" />
		</linearGradient>
		<pattern id="scanlines" width="1" height="0.15" patternUnits="userSpaceOnUse">
			<rect width="1" height="0.075" fill="white" />
		</pattern>
		<mask id="scanlines-mask">
			<rect width="100%" height="100%" fill="url(#scanlines)" />
		</mask>
		<filter id="glow" x="-30%" y="-30%" width="160%" height="160%">
			<feGaussianBlur stdDeviation="0.1" result="blur" />
			<feMerge>
				<feMergeNode in="blur" />
				<feMergeNode in="SourceGraphic" />
			</feMerge>
		</filter>
		<filter id="shadow" x="-50%" y="-50%" width="200%" height="200%">
			<feDropShadow dy="0.3" dx="0.15" stdDeviation="0.3" flood-color="black" />
		</filter>
	</defs>
	<g transform="translate(0, 1.05) scale(0.047)">
		<path fill="white" fill-opacity="0.7" d="m 68.005033,22.545915 c -1.152226,0.03819 -3.682954,1.703624 -3.682954,1.703624 L 4.0829029,58.525152 c -2.5965226,2.336886 -0.2612097,4.153121 -0.2612097,4.153121 0,0 18.6398538,10.544085 28.0444778,18.176815 8.958039,7.270287 25.575666,20.770512 32.066997,27.910962 2.580325,2.83836 4.738127,1.33092 6.231139,0.51951 1.839312,-0.99961 20.381027,-17.914868 27.910975,-23.627248 6.143528,-4.660624 31.678878,-21.680421 33.756088,-23.238344 2.07693,-1.557919 0,-3.117022 0,-3.117022 0,0 -24.01853,-12.202864 -38.039814,-20.771424 -7.077719,-4.325274 -23.752974,-15.598427 -25.574663,-15.968197 -0.06341,-0.01291 -0.135069,-0.02022 -0.211843,-0.01741 z M 67.308495,31.130781 119.36913,60.211362 67.436197,99.028994 16.156281,60.730861 Z" />
		<path fill="url(#bg)" d="M 67.437157,99.029964 16.155646,60.731113 67.307344,31.130646 119.36778,60.2118 Z" />
		<path stroke-width="5.6" stroke-linejoin="bevel" d="m 67.95,21.06 c -1.25,0.04 -2.09,0.59 -2.93,1.04 -0.84,0.46 -1.51,0.9 -1.51,0.9 L 3.34,57.24 3.09,57.43 c -1.61,1.44 -1.94,3.32 -1.51,4.54 0.42,1.22 1.33,1.89 1.33,1.89 l 0.19,0.12 c 0,0 18.66,10.58 27.84,18.03 8.96,7.27 25.63,20.87 31.9,27.76 1.52,1.67 3.32,2.27 4.8,2.1 1.49,-0.17 2.56,-0.91 3.24,-1.27 0.54,-0.29 0.94,-0.64 1.66,-1.23 0.72,-0.58 1.63,-1.35 2.69,-2.26 2.12,-1.82 4.85,-4.21 7.76,-6.75 5.8,-5.07 12.33,-10.73 16,-13.51 2.98,-2.26 10.93,-7.71 18.34,-12.74 3.7,-2.52 7.29,-4.93 10.07,-6.82 2.78,-1.89 4.69,-3.19 5.34,-3.67 0.71,-0.53 1.22,-1.21 1.42,-1.95 0.2,-0.75 0.06,-1.47 -0.18,-1.99 -0.46,-1.03 -1.24,-1.56 -1.24,-1.56 l -0.22,-0.14 c 0,0 -24.03,-12.21 -37.94,-20.71 -3.49,-2.13 -9.43,-6.03 -14.72,-9.44 -2.64,-1.71 -5.13,-3.3 -7.09,-4.49 -0.98,-0.59 -1.81,-1.09 -2.49,-1.46 -0.68,-0.37 -1.02,-0.62 -1.76,-0.77 -0.17,-0.03 -0.35,-0.05 -0.56,-0.04 z m 0.04,2.99 c -0.13,-0.02 0.29,0.12 0.84,0.43 0.61,0.33 1.42,0.81 2.37,1.39 1.91,1.16 4.38,2.73 7.02,4.43 5.27,3.4 11.2,7.3 14.79,9.49 14.06,8.59 37.69,20.6 37.94,20.72 0.03,0.03 0.24,0.23 0.3,0.36 0.03,0.07 0.02,0.03 0.02,0.01 0,-0.02 -0.01,0.09 -0.34,0.34 -0.39,0.29 -2.44,1.7 -5.22,3.59 -2.78,1.89 -6.36,4.31 -10.07,6.82 -7.41,5.03 -15.3,10.43 -18.47,12.83 -3.86,2.93 -10.36,8.58 -16.17,13.65 -2.9,2.53 -5.63,4.92 -7.73,6.72 -1.05,0.9 -1.95,1.67 -2.63,2.23 -0.68,0.55 -1.27,0.96 -1.18,0.91 -0.82,0.45 -1.56,0.86 -2.17,0.93 -0.61,0.07 -1.19,0.02 -2.25,-1.15 C 58.32,100.38 41.77,86.97 32.81,79.7 23.24,71.94 4.98,61.64 4.74,61.51 c 0,0 -0.26,-0.25 -0.35,-0.52 -0.09,-0.26 -0.2,-0.5 0.67,-1.31 l 60,-34.15 0.09,-0.04 c 0,0 0.58,-0.39 1.29,-0.78 0.69,-0.37 1.59,-0.64 1.56,-0.66 z" />
	</g>
	<g filter="url(#glow)" transform="translate(0, -0.3)">
		<g filter="url(#shadow)">
			<path fill="url(#yellow)" mask="url(#scanlines-mask)" d="m 3.2749979,0.7106017 c -0.148134,-0.00409 -0.334044,0.036721 -0.485242,0.2165243 -0.16646,0.1979519 -0.157303,0.383726 -0.115239,0.5105631 -0.767139,0.3228759 -1.470792,0.7522733 -1.668632,0.8764324 H 0.80279685 V 5.5485494 H 5.5957859 V 2.3141215 H 5.3957979 C 5.1842279,2.1225473 4.0886829,1.6006669 3.7204479,1.4278706 3.9125709,1.0140979 3.5333799,0.7638285 3.5333799,0.7638285 c 0,0 -0.110249,-0.04914 -0.258382,-0.0532268 z m 0.294038,0.9379273 c 0.627452,0.3357569 1.109991,0.5518531 1.42782,0.6655925 h -3.365169 c 0.327813,-0.1585088 0.817121,-0.405103 1.238167,-0.6330363 0.193525,0.1229941 0.466331,0.2071605 0.699182,-0.032556 z m -2.237072,1.195276 h 3.734655 V 5.0193827 H 4.6408059 C 4.5878699,4.9264249 4.4987399,4.8194555 4.3509009,4.703123 3.8523539,4.3108243 3.7869049,4.8666503 3.6806579,4.0003235 3.5744099,3.1339961 3.1329519,3.3220133 2.9613219,3.9594991 2.7896909,4.5969848 2.7325959,4.4661989 2.5282729,4.4008159 2.3570919,4.3460381 2.1169079,4.8533357 2.0435479,5.0193827 h -0.711584 z" />
		</g>
	</g>
</svg>
